# xmcd CD database file
#
# Track frame offsets:
#	150
#	11456
#	25732
#	34130
#	47264
#	60384
#	68813
#	79447
#	95332
#	105854
#	116101
#	128482
#	145424
#
# Disc length: 2215 seconds
#
# Revision: 0
# Processed by: cddbd v1.5.2PL0 Copyright (c) Steve Scherf et al.
# Submitted via: CDex 1.50
#
DISCID=9d08a50d
DTITLE=Mech·Ëi - Mech·Ëi
DYEAR=1995
DGENRE=Country
TTITLE0=Pribeh z mechu a kapradi
TTITLE1=Jeskynka
TTITLE2=Podzimni
TTITLE3=Cizi kraj
TTITLE4=Az se ucho utrhne
TTITLE5=Divnej vlak
TTITLE6=Blaznivej sen
TTITLE7=Jen ten plac
TTITLE8=Zda se snadny
TTITLE9=Motorak
TTITLE10=Styskani
TTITLE11=Rad vzpominam
TTITLE12=Domu
EXTD=YEAR: 1995
EXTT0=
EXTT1=
EXTT2=
EXTT3=
EXTT4=
EXTT5=
EXTT6=
EXTT7=
EXTT8=
EXTT9=
EXTT10=
EXTT11=
EXTT12=
PLAYORDER=
